<mxfile host="app.diagrams.net" modified="2024-05-25T21:11:56.351Z" agent="Mozilla/5.0 (Windows NT 10.0; Win64; x64; rv:126.0) Gecko/20100101 Firefox/126.0" etag="VS3unTq4V27Fd31D7WoW" version="24.4.8" type="github">
  <diagram name="Page-1" id="55a83fd1-7818-8e21-69c5-c3457e3827bb">
    <mxGraphModel dx="691" dy="371" grid="1" gridSize="10" guides="1" tooltips="1" connect="1" arrows="1" fold="1" page="1" pageScale="1" pageWidth="1100" pageHeight="850" background="none" math="0" shadow="0">
      <root>
        <mxCell id="0" />
        <mxCell id="1" parent="0" />
        <mxCell id="69ecfefc5c41e42c-2" value="Internet" style="image;html=1;labelBackgroundColor=#ffffff;image=img/lib/clip_art/networking/Cloud_128x128.png;rounded=1;shadow=0;comic=0;strokeWidth=2;fontSize=22;labelPosition=center;verticalLabelPosition=top;align=center;verticalAlign=bottom;" parent="1" vertex="1">
          <mxGeometry x="470" y="140" width="80" height="80" as="geometry" />
        </mxCell>
        <mxCell id="GuMGin0lE9v5dH_PCKjd-7" style="edgeStyle=orthogonalEdgeStyle;rounded=0;orthogonalLoop=1;jettySize=auto;html=1;exitX=0;exitY=0.5;exitDx=0;exitDy=0;exitPerimeter=0;endArrow=box;endFill=0;startArrow=box;startFill=0;strokeWidth=2;entryX=1;entryY=0.5;entryDx=0;entryDy=0;entryPerimeter=0;" parent="1" source="GuMGin0lE9v5dH_PCKjd-1" edge="1" target="KLEj2hCXxhUv6-pm4slY-2">
          <mxGeometry relative="1" as="geometry">
            <mxPoint x="350" y="285" as="targetPoint" />
          </mxGeometry>
        </mxCell>
        <mxCell id="KLEj2hCXxhUv6-pm4slY-1" style="edgeStyle=orthogonalEdgeStyle;rounded=0;orthogonalLoop=1;jettySize=auto;html=1;exitX=0.5;exitY=0;exitDx=0;exitDy=0;exitPerimeter=0;strokeWidth=2;endArrow=halfCircle;endFill=0;" edge="1" parent="1" source="GuMGin0lE9v5dH_PCKjd-1" target="69ecfefc5c41e42c-2">
          <mxGeometry relative="1" as="geometry" />
        </mxCell>
        <mxCell id="GuMGin0lE9v5dH_PCKjd-1" value="ATT Modem" style="fontColor=#0066CC;verticalAlign=middle;verticalLabelPosition=middle;labelPosition=right;align=left;html=1;outlineConnect=0;fillColor=#CCCCCC;strokeColor=#6881B3;gradientColor=none;gradientDirection=north;strokeWidth=2;shape=mxgraph.networks.router;" parent="1" vertex="1">
          <mxGeometry x="460" y="270" width="100" height="30" as="geometry" />
        </mxCell>
        <mxCell id="GuMGin0lE9v5dH_PCKjd-2" value="8 Port Switch" style="fontColor=#0066CC;verticalAlign=middle;verticalLabelPosition=middle;labelPosition=right;align=left;html=1;outlineConnect=0;fillColor=#CCCCCC;strokeColor=#6881B3;gradientColor=none;gradientDirection=north;strokeWidth=2;shape=mxgraph.networks.switch;" parent="1" vertex="1">
          <mxGeometry x="460" y="520" width="100" height="20" as="geometry" />
        </mxCell>
        <mxCell id="GuMGin0lE9v5dH_PCKjd-3" value="Ubiquiti Security Gateway" style="fontColor=#0066CC;verticalAlign=middle;verticalLabelPosition=middle;labelPosition=right;align=left;html=1;outlineConnect=0;fillColor=#CCCCCC;strokeColor=#6881B3;gradientColor=none;gradientDirection=north;strokeWidth=2;shape=mxgraph.networks.router;" parent="1" vertex="1">
          <mxGeometry x="460" y="395" width="100" height="30" as="geometry" />
        </mxCell>
        <mxCell id="GuMGin0lE9v5dH_PCKjd-4" style="edgeStyle=orthogonalEdgeStyle;rounded=0;orthogonalLoop=1;jettySize=auto;html=1;exitX=0.5;exitY=1;exitDx=0;exitDy=0;exitPerimeter=0;entryX=0.5;entryY=0;entryDx=0;entryDy=0;entryPerimeter=0;endArrow=box;endFill=0;startArrow=box;startFill=0;strokeWidth=2;" parent="1" source="GuMGin0lE9v5dH_PCKjd-1" target="GuMGin0lE9v5dH_PCKjd-3" edge="1">
          <mxGeometry relative="1" as="geometry" />
        </mxCell>
        <mxCell id="GuMGin0lE9v5dH_PCKjd-5" value="192.168.0.254&lt;br&gt;(STATIC)" style="text;html=1;align=center;verticalAlign=middle;resizable=0;points=[];autosize=1;strokeColor=none;fillColor=none;" parent="1" vertex="1">
          <mxGeometry x="505" y="300" width="100" height="40" as="geometry" />
        </mxCell>
        <mxCell id="GuMGin0lE9v5dH_PCKjd-6" value="192.168.0.1&lt;br&gt;(STATIC)" style="text;html=1;align=center;verticalAlign=middle;resizable=0;points=[];autosize=1;strokeColor=none;fillColor=none;" parent="1" vertex="1">
          <mxGeometry x="510" y="355" width="90" height="40" as="geometry" />
        </mxCell>
        <mxCell id="GuMGin0lE9v5dH_PCKjd-8" style="edgeStyle=orthogonalEdgeStyle;rounded=0;orthogonalLoop=1;jettySize=auto;html=1;exitX=0.5;exitY=1;exitDx=0;exitDy=0;exitPerimeter=0;entryX=0.5;entryY=0;entryDx=0;entryDy=0;entryPerimeter=0;strokeWidth=2;endArrow=box;endFill=0;startArrow=box;startFill=0;" parent="1" source="GuMGin0lE9v5dH_PCKjd-3" target="GuMGin0lE9v5dH_PCKjd-2" edge="1">
          <mxGeometry relative="1" as="geometry" />
        </mxCell>
        <mxCell id="GuMGin0lE9v5dH_PCKjd-9" value="192.168.1.210&lt;br&gt;(STATIC)" style="text;html=1;align=center;verticalAlign=middle;resizable=0;points=[];autosize=1;strokeColor=none;fillColor=none;" parent="1" vertex="1">
          <mxGeometry x="505" y="480" width="100" height="40" as="geometry" />
        </mxCell>
        <mxCell id="GuMGin0lE9v5dH_PCKjd-10" value="192.168.1.1&lt;br&gt;(STATIC)" style="text;html=1;align=center;verticalAlign=middle;resizable=0;points=[];autosize=1;strokeColor=none;fillColor=none;" parent="1" vertex="1">
          <mxGeometry x="510" y="425" width="90" height="40" as="geometry" />
        </mxCell>
        <mxCell id="GuMGin0lE9v5dH_PCKjd-12" style="edgeStyle=orthogonalEdgeStyle;rounded=0;orthogonalLoop=1;jettySize=auto;html=1;exitX=1;exitY=0.5;exitDx=0;exitDy=0;exitPerimeter=0;endArrow=box;endFill=0;startArrow=box;startFill=0;strokeWidth=2;" parent="1" source="GuMGin0lE9v5dH_PCKjd-11" target="GuMGin0lE9v5dH_PCKjd-3" edge="1">
          <mxGeometry relative="1" as="geometry" />
        </mxCell>
        <mxCell id="GuMGin0lE9v5dH_PCKjd-11" value="WAP" style="shape=mxgraph.cisco.wireless.wlan_controller;sketch=0;html=1;pointerEvents=1;dashed=0;fillColor=#036897;strokeColor=#ffffff;strokeWidth=2;verticalLabelPosition=bottom;verticalAlign=top;align=center;outlineConnect=0;rotation=0;" parent="1" vertex="1">
          <mxGeometry x="270" y="391" width="80" height="38" as="geometry" />
        </mxCell>
        <mxCell id="GuMGin0lE9v5dH_PCKjd-13" value="192.168.1.220&lt;br&gt;(STATIC)" style="text;html=1;align=center;verticalAlign=middle;resizable=0;points=[];autosize=1;strokeColor=none;fillColor=none;" parent="1" vertex="1">
          <mxGeometry x="345" y="370" width="100" height="40" as="geometry" />
        </mxCell>
        <mxCell id="GuMGin0lE9v5dH_PCKjd-14" value="192.168.1.73" style="fontColor=#0066CC;verticalAlign=top;verticalLabelPosition=bottom;labelPosition=center;align=center;html=1;outlineConnect=0;fillColor=#CCCCCC;strokeColor=#6881B3;gradientColor=none;gradientDirection=north;strokeWidth=2;shape=mxgraph.networks.pc;" parent="1" vertex="1">
          <mxGeometry x="460" y="590" width="100" height="70" as="geometry" />
        </mxCell>
        <mxCell id="GuMGin0lE9v5dH_PCKjd-15" style="edgeStyle=orthogonalEdgeStyle;rounded=0;orthogonalLoop=1;jettySize=auto;html=1;exitX=0.5;exitY=1;exitDx=0;exitDy=0;exitPerimeter=0;entryX=0.5;entryY=0.07;entryDx=0;entryDy=0;entryPerimeter=0;endArrow=box;endFill=0;startArrow=box;startFill=0;strokeWidth=2;" parent="1" source="GuMGin0lE9v5dH_PCKjd-2" target="GuMGin0lE9v5dH_PCKjd-14" edge="1">
          <mxGeometry relative="1" as="geometry" />
        </mxCell>
        <mxCell id="GuMGin0lE9v5dH_PCKjd-17" value="192.168.1.77&lt;br&gt;PIXEL 8" style="fontColor=#0066CC;verticalAlign=top;verticalLabelPosition=bottom;labelPosition=center;align=center;html=1;outlineConnect=0;fillColor=#CCCCCC;strokeColor=#6881B3;gradientColor=none;gradientDirection=north;strokeWidth=2;shape=mxgraph.networks.mobile;" parent="1" vertex="1">
          <mxGeometry x="150" y="555" width="20" height="40" as="geometry" />
        </mxCell>
        <mxCell id="GuMGin0lE9v5dH_PCKjd-18" style="rounded=0;orthogonalLoop=1;jettySize=auto;html=1;exitX=0;exitY=1;exitDx=0;exitDy=0;exitPerimeter=0;entryX=0.5;entryY=0;entryDx=0;entryDy=0;entryPerimeter=0;dashed=1;dashPattern=8 8;strokeWidth=2;endArrow=none;endFill=0;startArrow=none;startFill=0;" parent="1" source="GuMGin0lE9v5dH_PCKjd-11" target="GuMGin0lE9v5dH_PCKjd-17" edge="1">
          <mxGeometry relative="1" as="geometry" />
        </mxCell>
        <mxCell id="GuMGin0lE9v5dH_PCKjd-20" value="192.168.1.100 (STATIC)" style="fontColor=#0066CC;verticalAlign=bottom;verticalLabelPosition=top;labelPosition=right;align=left;html=1;outlineConnect=0;fillColor=#CCCCCC;strokeColor=#6881B3;gradientColor=none;gradientDirection=north;strokeWidth=2;shape=mxgraph.networks.desktop_pc;" parent="1" vertex="1">
          <mxGeometry x="680" y="595" width="30" height="60" as="geometry" />
        </mxCell>
        <mxCell id="GuMGin0lE9v5dH_PCKjd-22" style="rounded=0;orthogonalLoop=1;jettySize=auto;html=1;exitX=0.5;exitY=0;exitDx=0;exitDy=0;exitPerimeter=0;dashed=1;strokeWidth=2;dashPattern=8 8;endArrow=none;endFill=0;" parent="1" source="GuMGin0lE9v5dH_PCKjd-21" target="GuMGin0lE9v5dH_PCKjd-11" edge="1">
          <mxGeometry relative="1" as="geometry" />
        </mxCell>
        <mxCell id="GuMGin0lE9v5dH_PCKjd-21" value="192.168.1.29&lt;br&gt;ROKU" style="fontColor=#0066CC;verticalAlign=top;verticalLabelPosition=bottom;labelPosition=center;align=center;html=1;outlineConnect=0;fillColor=#CCCCCC;strokeColor=#6881B3;gradientColor=none;gradientDirection=north;strokeWidth=2;shape=mxgraph.networks.tablet;" parent="1" vertex="1">
          <mxGeometry x="210" y="555" width="100" height="70" as="geometry" />
        </mxCell>
        <mxCell id="GuMGin0lE9v5dH_PCKjd-24" style="rounded=0;orthogonalLoop=1;jettySize=auto;html=1;exitX=0.5;exitY=0;exitDx=0;exitDy=0;exitPerimeter=0;dashed=1;dashPattern=8 8;strokeWidth=2;endArrow=none;endFill=0;" parent="1" source="GuMGin0lE9v5dH_PCKjd-23" target="GuMGin0lE9v5dH_PCKjd-11" edge="1">
          <mxGeometry relative="1" as="geometry" />
        </mxCell>
        <mxCell id="GuMGin0lE9v5dH_PCKjd-23" value="&lt;font color=&quot;#0066cc&quot;&gt;192.168.1.30&lt;br&gt;Chromecast&lt;/font&gt;" style="shape=mxgraph.cisco.wireless.wireless;sketch=0;html=1;pointerEvents=1;dashed=0;fillColor=#036897;strokeColor=#ffffff;strokeWidth=2;verticalLabelPosition=bottom;verticalAlign=top;align=center;outlineConnect=0;" parent="1" vertex="1">
          <mxGeometry x="340" y="586.5" width="20" height="38.5" as="geometry" />
        </mxCell>
        <mxCell id="GuMGin0lE9v5dH_PCKjd-25" value="192.168.1.31&lt;br&gt;Roomba" style="ellipse;shape=doubleEllipse;whiteSpace=wrap;html=1;aspect=fixed;labelPosition=center;verticalLabelPosition=bottom;align=center;verticalAlign=top;fontColor=#0066CC;" parent="1" vertex="1">
          <mxGeometry x="100" y="450" width="50" height="50" as="geometry" />
        </mxCell>
        <mxCell id="GuMGin0lE9v5dH_PCKjd-26" style="rounded=0;orthogonalLoop=1;jettySize=auto;html=1;exitX=1;exitY=0;exitDx=0;exitDy=0;entryX=0;entryY=0.5;entryDx=0;entryDy=0;entryPerimeter=0;dashed=1;dashPattern=8 8;strokeWidth=2;endArrow=none;endFill=0;" parent="1" source="GuMGin0lE9v5dH_PCKjd-25" target="GuMGin0lE9v5dH_PCKjd-11" edge="1">
          <mxGeometry relative="1" as="geometry" />
        </mxCell>
        <mxCell id="GuMGin0lE9v5dH_PCKjd-27" style="edgeStyle=orthogonalEdgeStyle;rounded=0;orthogonalLoop=1;jettySize=auto;html=1;exitX=0.9;exitY=1;exitDx=0;exitDy=0;exitPerimeter=0;entryX=0.5;entryY=0;entryDx=0;entryDy=0;entryPerimeter=0;strokeWidth=2;endArrow=box;endFill=0;startArrow=box;startFill=0;" parent="1" source="GuMGin0lE9v5dH_PCKjd-2" target="GuMGin0lE9v5dH_PCKjd-20" edge="1">
          <mxGeometry relative="1" as="geometry" />
        </mxCell>
        <mxCell id="GuMGin0lE9v5dH_PCKjd-29" value="" style="whiteSpace=wrap;html=1;aspect=fixed;fillColor=none;strokeWidth=2;" parent="1" vertex="1">
          <mxGeometry x="605" y="655" width="180" height="180" as="geometry" />
        </mxCell>
        <mxCell id="GuMGin0lE9v5dH_PCKjd-30" value="192.168.1.110&lt;br&gt;Media Server" style="fontColor=#0066CC;verticalAlign=top;verticalLabelPosition=bottom;labelPosition=center;align=center;html=1;outlineConnect=0;fillColor=#CCCCCC;strokeColor=#6881B3;gradientColor=none;gradientDirection=north;strokeWidth=2;shape=mxgraph.networks.virtual_pc;" parent="1" vertex="1">
          <mxGeometry x="629.26" y="750" width="50.74" height="37.5" as="geometry" />
        </mxCell>
        <mxCell id="GuMGin0lE9v5dH_PCKjd-31" value="192.168.1.200&lt;br&gt;Ubiquiti Control" style="fontColor=#0066CC;verticalAlign=top;verticalLabelPosition=bottom;labelPosition=center;align=center;html=1;outlineConnect=0;fillColor=#CCCCCC;strokeColor=#6881B3;gradientColor=none;gradientDirection=north;strokeWidth=2;shape=mxgraph.networks.virtual_pc;" parent="1" vertex="1">
          <mxGeometry x="629.26" y="670" width="50.74" height="37.5" as="geometry" />
        </mxCell>
        <mxCell id="KLEj2hCXxhUv6-pm4slY-2" value="192.168.0.10&lt;br&gt;PiHole" style="shape=mxgraph.cisco.computers_and_peripherals.ibm_mini_as400;sketch=0;html=1;pointerEvents=1;dashed=0;fillColor=#036897;strokeColor=#ffffff;strokeWidth=2;verticalLabelPosition=bottom;verticalAlign=top;align=center;outlineConnect=0;" vertex="1" parent="1">
          <mxGeometry x="297" y="275" width="43" height="20" as="geometry" />
        </mxCell>
      </root>
    </mxGraphModel>
  </diagram>
</mxfile>
